<svg id="Capa_1" data-name="Capa 1" xmlns="http://www.w3.org/2000/svg" viewBox="0 0 1049.85 617.66"><defs><style>.cls-1{fill:#fff;}</style></defs><path class="cls-1" d="M838.87,548.33h247c.23-2.8.46-5.16.61-7.52,1.64-25.26,15.11-44.89,35.33-56.93,35.18-21,79.61-1.27,86.66,39.6,1.39,8.06.2,16.56.2,25.28,19.62,0,39.45-.75,59.19.19,25,1.18,42.32-12.59,44.43-39.78.26-3.36.31-6.76.26-10.14a575.52,575.52,0,0,0-13.74-117.77c-2.7-12.1-5.58-24.15-8.5-36.75,9.91.35,18.75.52,23.82,6.33-.6,5.61-1.78,9.22-1.19,12.52,1.75,9.72,4,19.36,6.45,28.94,1.74,6.83,6.68,10.12,12.77,9,6.52-1.2,9.43-5.49,9.22-11.88-.3-8.93-.36-17.91-1.33-26.77-2.52-23-16-36.27-38.8-38.7a84.42,84.42,0,0,0-12.27-.83c-4.19.17-5.9-1.46-6.94-5.43-7-26.61-24.28-42.4-50.89-48.86-32.46-7.88-65.6-10.2-98.62-9.29-62.56,1.72-125.15,4.22-187.55,8.84-76.87,5.68-153.55,13.81-230.3,21-13,1.22-26,2.5-38.78,5.08-30.76,6.21-47.9,27-52.93,56.41-5.18,30.38-7.41,61.27-10.59,92-1,9.72-.49,9.74-10.13,10-5.07.12-10.53-.74-15.08.88-3.32,1.18-7.2,5.44-7.69,8.78-.7,4.75,4,6.45,8.59,6.47,1,0,1.93,0,2.9,0q42.78-.58,85.57-1.22c2.16,0,5,.33,6.31-.86,2.71-2.55,6.08-5.83,6.44-9.11.56-5-3.8-6.51-8.5-6.41-13,.26-26.11.4-39.16.58-2.51,0-5,0-7.84,0,.59-10.67.57-20.13,1.73-29.45,3-24.63,5.54-49.41,10.32-73.72,3.87-19.7,17.69-31.4,37.88-33.65,49.22-5.49,98.45-11.05,147.78-15.47q89.52-8,179.23-14.11c57.4-3.8,114.92-7.3,172.4-1.82a287.93,287.93,0,0,1,52.39,9.93c13.16,3.81,22.28,13.73,24.79,30.08-5.66-1.21-12.9-.68-14.53-3.46-7-11.85-17.92-16-30-17.79-17.92-2.58-36-4.9-54-5.9-66.81-3.68-133.37,2.06-199.91,6.62-60.74,4.16-121.4,9.75-182,15.19-31,2.78-62,6.37-93,10-13.63,1.61-23.35,9.16-27.29,22.63a235.54,235.54,0,0,0-6.12,26.76c-3,17.79,6.8,29.24,24.8,29,17.16-.24,34.31-1,51.46-1.48q96.42-2.78,192.83-5.53,69.59-2,139.19-3.67c32.2-.79,61.53,7.71,87.61,27.05,11.24,8.34,22.76,16.36,34.61,23.79,4.19,2.63,9.69,3.86,14.71,4.31,7.85.7,15.81.18,24.27.18v13c22,7.69,44.5,6.68,66.72,7.15,0,14.32.37,27.8-.14,41.24-.29,7.53-4.92,13.39-12.54,13.76-15.35.74-30.77.22-46.35.22-.32-2.24-.61-3.87-.77-5.51-3-30.64-32.76-64.91-72.61-67.35-42.54-2.59-78.7,32.94-87.87,64-2.12,7.16-5.18,9.25-12.39,9.22-63.1-.26-126.2-.13-189.3-.15-1.85,0-3.71-.34-5.62-.52l-.6-4.76a75.28,75.28,0,0,0-71.42-66,90,90,0,0,0-90,64.78c-1.48,5.05-3.23,6.38-8.42,5.45-16.4-2.92-32.92-5.18-49.37-7.91-8.84-1.46-11.22-4.73-10.84-14,.28-6.91.64-13.82.91-19.4-29,0-57.24-.1-85.45.07-6.83.05-11.12,4.11-10.54,9.28.76,6.84,6.16,6.47,11,6.43,18.13-.15,36.26-.42,54.39-.64,2.53,0,5.07,0,7.94,0,0,2.18,0,3.37,0,4.55-.19,20.21,8.51,31.13,28.3,34.74,13.78,2.52,27.62,4.78,41.5,6.62,12.54,1.67,25.17,2.62,38.05,3.91.25-3,.4-4.19.44-5.36.76-23.39,11.25-41.68,29.87-55.26,27.55-20.08,65.27-14.18,83.37,12.65C840.77,515.94,842.37,531.62,838.87,548.33Zm185.46,187.25c-7.19,31-14.08,60.71-21.16,91.26,11.22,0,21.1-.26,31,.09,7.62.27,11.57-3,13.18-10.36,3.06-13.9,6.8-27.66,9.6-41.61,1-5.2,3.17-6.5,8.16-6.5,15,0,30,.25,44.91-1,32.89-2.74,57.37-22.52,65.45-51.73,10-36-7.3-65.3-44.26-69.72-25.74-3.08-52.09-1.35-78.16-1.06-3,0-7.59,4.16-8.54,7.27-3.56,11.67-5.92,23.71-8.92,36.39,19.59,0,38.37.1,57.14-.22,1.32,0,3.23-3,3.76-4.89,1.62-5.88,2.71-11.9,4.35-19.46l42.48,44.4-61.52,40.89,5-23c-30,0-59.41-1-88.78.29-23.92,1-39,14.63-44.87,38.24-2.79,11.26-8.1,21.23-18.45,27.59-19.43,11.94-39,1.66-40.06-21a50.88,50.88,0,0,1,.29-9.4c2.75-19.33,14.5-42.43,44.65-40.85,3.37.17,6.81-.34,10.14.09,8.9,1.14,16.52-.1,21.15-9,.84-1.61,2.74-2.68,4.17-4,11.22-10.19,24.8-15.32,39.49-18.21-31.61-.39-63.18-1.61-94.59,0-20.73,1.1-37.15,13.17-49,30.18-13.23,18.9-18,40.22-16.67,63.16,1.71,29.57,24.92,49.14,54.34,45.91,13.74-1.51,25.21-7.33,36.17-17.95-.44,6.12-.75,10.47-1.11,15.4,10,0,19.44-.41,28.8.14,6.76.39,8.42-2.76,9.55-8.65,3.53-18.46,7.19-36.93,11.82-55.14C997.57,748.19,1007.84,739.09,1024.33,735.58ZM427.15,826.86c10.68,0,19.83,0,29,0,10.67,0,12.64-1.37,15.13-11.47,2.7-11,5.16-22.08,7.89-33.09,1.73-7,1.7-16.73,6.24-20,5-3.61,14.35-.92,21.76-1.53,5.4-.44,7.47,1.87,9.12,6.75C522.44,785.79,529,804,535.78,822c.77,2,3.77,4.5,5.82,4.59,10.86.43,21.74.24,32.62.1,4.95-.06,7.2-2.29,5.2-7.46-2.87-7.43-5.61-14.9-8.43-22.34q-7.75-20.48-15.52-40.88c22-9.13,31.37-16.15,39.41-29.33,13-21.39,11.89-49.84-3-65.58-11.14-11.78-25.66-16.15-41.29-16.47-23-.48-45.92-.26-68.88-.26-10.21,0-12.29,1.77-14.71,12.06q-14.52,61.63-29,123.27C434.44,794.92,431,810.16,427.15,826.86Zm833.58,0h31.35c4.44,0,6-2.45,6.89-6.65,8.08-36.52,16.43-73,24.66-109.45,1.46-6.45,2.79-12.92,4.36-20.23-7.72,0-14.19,0-20.67,0-16.35.12-16.35.14-22.61,15.29-6.06-10.39-15.07-16-26.32-17.42-15.73-2-30.84.44-44.79,8.42-32.39,18.55-50.47,63.49-39.65,99.26,4.87,16.1,15.15,27.61,31.79,31.77,18.68,4.66,36,1.1,51-11.44,1.55-1.3,3.14-2.55,5.52-4.47C1261.7,817.29,1261.27,821.55,1260.73,826.83ZM1477,690.53c-13.27,0-24.8.23-36.3-.1-4.89-.14-7.43,1.83-9.5,6-9.35,18.78-18.91,37.46-28.43,56.16-4.32,8.49-8.72,16.95-14,27.18-3.28-26.06-6.2-50.11-9.34-74.13-2.41-18.44.81-15-16.67-15-8.78,0-17.56,0-26.9,0,7.75,42.14,15.14,82.94,22.78,123.69,2.62,13.94-9.08,29.57-23.5,30.07A45.56,45.56,0,0,1,1321,842.2c-4.38-1.29-6.72-.75-7.94,4a127.59,127.59,0,0,1-5.26,16.53c-2.68,6.57-.61,9.28,6,11.21,30.22,8.78,57.88-1,74.83-29.06,20.07-33.23,38.71-67.32,58-101.05ZM686.29,826.87c9.64,0,18.32-.21,27,.08,6.33.21,9.39-2,10.86-8.61C731.8,784,740,749.74,748,715.45c1.84-7.91,3.51-15.87,5.52-24.93-10.82,0-20.7.53-30.49-.17-7.64-.55-10.53,2.3-12,9.58-4.08,20.08-8.93,40-13.45,60-2.67,11.79-7.06,22.61-17.13,30.17-8.52,6.4-21.23,7.73-28.61,2.76-9.3-6.25-7.48-15.41-5.56-24.23,3.75-17.2,7.89-34.32,11.76-51.5,1.9-8.4,3.56-16.86,5.57-26.48-11.77,0-22.57.26-33.35-.12-4.81-.16-6.7,1.47-7.72,6.09-5.14,23.31-10.94,46.48-15.78,69.85-2,9.83-3.49,20.08-3,30,.77,17.08,11.72,28.84,27.56,31.85,19,3.61,35.92-.68,50.78-13.07l6.45-5.41C687.7,816.1,687.06,821,686.29,826.87Zm73-105.17H780c-.77,3.41-1.35,5.95-1.9,8.5-4.25,19.8-9.23,39.48-12.52,59.44-2.88,17.49,6,31.76,21.37,36.67s31,3.75,46.33-1.06c1.77-.55,4.3-2.56,4.37-4,.4-9,.2-18,.2-27.59a55.3,55.3,0,0,1-6.66,2.55c-19.11,4.41-27.93-4.8-23.59-20.63,1.4-5.11,2.15-10.39,3.36-15.55,3-12.82,6.11-25.62,9.21-38.56,9.91,0,19.08.14,28.24-.1,2.05-.06,5.5-1,5.88-2.3,2.67-8.9,4.7-18,7.3-28.49H827.39c2.92-13.2,5.53-25.06,8.5-38.48-12.57,2.59-24,4.22-34.95,7.61-3.69,1.15-7,6.36-8.67,10.46-2.47,6.18-3.29,13-4.95,20.15-5.1,0-10-.44-14.66.19-2.41.31-6,2.08-6.59,4C763.42,703,761.66,711.69,759.25,721.7Zm382.64-135.39c26.73-.09,50.13-20.9,53.57-47.64,3.57-27.75-16.3-49.28-44.29-48-24.73,1.13-46.87,22.07-50.56,47.82C1096.79,565.09,1115.19,586.4,1141.89,586.31ZM785.3,490.56c-30.48,0-56.47,28.3-53.92,58.65,1.71,20.28,16.7,35.24,37.06,37,31.62,2.7,59.8-24.3,58.38-55.93C825.8,507.6,808,490.54,785.3,490.56Z" transform="translate(-427.15 -259.36)"/><path d="M838.87,548.33c3.5-16.71,1.9-32.39-7.73-46.66C813,474.84,775.32,468.94,747.77,489c-18.62,13.58-29.11,31.87-29.87,55.26,0,1.17-.19,2.34-.44,5.36-12.88-1.29-25.51-2.24-38.05-3.91-13.88-1.84-27.72-4.1-41.5-6.62-19.79-3.61-28.49-14.53-28.3-34.74,0-1.18,0-2.37,0-4.55-2.87,0-5.41,0-7.94,0-18.13.22-36.26.49-54.39.64-4.84,0-10.24.41-11-6.43-.58-5.17,3.71-9.23,10.54-9.28,28.21-.17,56.43-.07,85.45-.07-.27,5.58-.63,12.49-.91,19.4-.38,9.25,2,12.52,10.84,14,16.45,2.73,33,5,49.37,7.91,5.19.93,6.94-.4,8.42-5.45a90,90,0,0,1,90-64.78,75.28,75.28,0,0,1,71.42,66l.6,4.76c1.91.18,3.77.52,5.62.52,63.1,0,126.2-.11,189.3.15,7.21,0,10.27-2.06,12.39-9.22,9.17-31.06,45.33-66.59,87.87-64,39.85,2.44,69.64,36.71,72.61,67.35.16,1.64.45,3.27.77,5.51,15.58,0,31,.52,46.35-.22,7.62-.37,12.25-6.23,12.54-13.76.51-13.44.14-26.92.14-41.24-22.22-.47-44.73.54-66.72-7.15v-13c-8.46,0-16.42.52-24.27-.18-5-.45-10.52-1.68-14.71-4.31-11.85-7.43-23.37-15.45-34.61-23.79-26.08-19.34-55.41-27.84-87.61-27.05q-69.6,1.71-139.19,3.67-96.42,2.68-192.83,5.53c-17.15.5-34.3,1.24-51.46,1.48-18,.25-27.81-11.2-24.8-29a235.54,235.54,0,0,1,6.12-26.76c3.94-13.47,13.66-21,27.29-22.63,31-3.67,61.92-7.26,93-10,60.65-5.44,121.31-11,182-15.19,66.54-4.56,133.1-10.3,199.91-6.62,18,1,36.08,3.32,54,5.9,12.13,1.75,23.08,5.94,30,17.79,1.63,2.78,8.87,2.25,14.53,3.46-2.51-16.35-11.63-26.27-24.79-30.08a287.93,287.93,0,0,0-52.39-9.93c-57.48-5.48-115-2-172.4,1.82q-89.7,6-179.23,14.11c-49.33,4.42-98.56,10-147.78,15.47-20.19,2.25-34,13.95-37.88,33.65-4.78,24.31-7.27,49.09-10.32,73.72-1.16,9.32-1.14,18.78-1.73,29.45,2.81,0,5.33,0,7.84,0,13-.18,26.11-.32,39.16-.58,4.7-.1,9.06,1.44,8.5,6.41-.36,3.28-3.73,6.56-6.44,9.11-1.27,1.19-4.15.83-6.31.86q-42.78.66-85.57,1.22c-1,0-1.94,0-2.9,0-4.57,0-9.29-1.72-8.59-6.47.49-3.34,4.37-7.6,7.69-8.78,4.55-1.62,10-.76,15.08-.88,9.64-.23,9.13-.25,10.13-10,3.18-30.7,5.41-61.59,10.59-92,5-29.44,22.17-50.2,52.93-56.41,12.75-2.58,25.8-3.86,38.78-5.08,76.75-7.23,153.43-15.36,230.3-21,62.4-4.62,125-7.12,187.55-8.84,33-.91,66.16,1.41,98.62,9.29,26.61,6.46,43.93,22.25,50.89,48.86,1,4,2.75,5.6,6.94,5.43a84.42,84.42,0,0,1,12.27.83c22.81,2.43,36.28,15.67,38.8,38.7,1,8.86,1,17.84,1.33,26.77.21,6.39-2.7,10.68-9.22,11.88-6.09,1.11-11-2.18-12.77-9-2.45-9.58-4.7-19.22-6.45-28.94-.59-3.3.59-6.91,1.19-12.52-5.07-5.81-13.91-6-23.82-6.33,2.92,12.6,5.8,24.65,8.5,36.75A575.52,575.52,0,0,1,1312.54,499c0,3.38,0,6.78-.26,10.14-2.11,27.19-19.41,41-44.43,39.78-19.74-.94-39.57-.19-59.19-.19,0-8.72,1.19-17.22-.2-25.28-7-40.87-51.48-60.57-86.66-39.6-20.22,12-33.69,31.67-35.33,56.93-.15,2.36-.38,4.72-.61,7.52Zm373.51-110.69c0-3.81,0-6.16,0-8.5-.07-12.8-.29-25.6-.17-38.4.1-11.07,6.06-17.76,16.13-18.67,11.18-1,19.82,4.34,21.85,13.54,2.32,10.52-2.44,18.91-12.85,22.81-1.67.62-3.23,1.54-4.83,2.32-.12.68-.23,1.35-.35,2a88.73,88.73,0,0,0,9.17,3.93c9.11,2.79,15.79,8.16,19.32,17.13,1.41,3.59,2.44,7.36,4.18,10.78,1,1.84,2.91,4.26,4.6,4.42,5.92.54,11.92.21,20.18.21-7-35.77-13.69-70.18-20.32-104.19h-60c-12,0-15.19,3-15.28,14.85-.14,19.8.08,39.61-.3,59.41-.13,6.2,2.24,10.14,7.42,12.82C1204.31,433.78,1207.58,435.29,1212.38,437.64Z" transform="translate(-427.15 -259.36)"/><path d="M1024.33,735.58c-16.49,3.51-26.76,12.61-30.58,27.61-4.63,18.21-8.29,36.68-11.82,55.14-1.13,5.89-2.79,9-9.55,8.65-9.36-.55-18.77-.14-28.8-.14.36-4.93.67-9.28,1.11-15.4-11,10.62-22.43,16.44-36.17,17.95-29.42,3.23-52.63-16.34-54.34-45.91-1.33-22.94,3.44-44.26,16.67-63.16,11.9-17,28.32-29.08,49-30.18,31.41-1.65,63-.43,94.59,0-14.69,2.89-28.27,8-39.49,18.21-1.43,1.3-3.33,2.37-4.17,4-4.63,8.91-12.25,10.15-21.15,9-3.33-.43-6.77.08-10.14-.09-30.15-1.58-41.9,21.52-44.65,40.85a50.88,50.88,0,0,0-.29,9.4c1,22.65,20.63,32.93,40.06,21,10.35-6.36,15.66-16.33,18.45-27.59,5.86-23.61,20.95-37.22,44.87-38.24,29.37-1.25,58.83-.29,88.78-.29l-5,23,61.52-40.89-42.48-44.4c-1.64,7.56-2.73,13.58-4.35,19.46-.53,1.9-2.44,4.87-3.76,4.89-18.77.32-37.55.22-57.14.22,3-12.68,5.36-24.72,8.92-36.39,1-3.11,5.57-7.24,8.54-7.27,26.07-.29,52.42-2,78.16,1.06,37,4.42,54.21,33.72,44.26,69.72-8.08,29.21-32.56,49-65.45,51.73-14.9,1.24-29.94,1-44.91,1-5,0-7.12,1.3-8.16,6.5-2.8,13.95-6.54,27.71-9.6,41.61-1.61,7.32-5.56,10.63-13.18,10.36-9.87-.35-19.75-.09-31-.09C1010.25,796.29,1017.14,766.6,1024.33,735.58Z" transform="translate(-427.15 -259.36)"/><path d="M427.15,826.86c3.84-16.7,7.29-31.94,10.86-47.15q14.46-61.65,29-123.27c2.42-10.29,4.5-12.06,14.71-12.06,23,0,45.92-.22,68.88.26,15.63.32,30.15,4.69,41.29,16.47,14.87,15.74,16,44.19,3,65.58-8,13.18-17.38,20.2-39.41,29.33q7.74,20.4,15.52,40.88c2.82,7.44,5.56,14.91,8.43,22.34,2,5.17-.25,7.4-5.2,7.46-10.88.14-21.76.33-32.62-.1-2.05-.09-5.05-2.55-5.82-4.59C529,804,522.44,785.79,516.26,767.52c-1.65-4.88-3.72-7.19-9.12-6.75-7.41.61-16.76-2.08-21.76,1.53-4.54,3.28-4.51,13.05-6.24,20-2.73,11-5.19,22.08-7.89,33.09-2.49,10.1-4.46,11.5-15.13,11.47C447,826.84,437.83,826.86,427.15,826.86Zm64.74-98.7c14.47,0,28.23.58,41.91-.19,10.1-.57,18.32-5.8,23.82-14.59,9.89-15.82,2.41-33.68-15.55-35.31-12.65-1.14-25.49-.22-38.67-.22C499.57,694.61,495.77,711.21,491.89,728.16Z" transform="translate(-427.15 -259.36)"/><path d="M1260.73,826.83c.54-5.28,1-9.54,1.52-14.91-2.38,1.92-4,3.17-5.52,4.47-15,12.54-32.31,16.1-51,11.44-16.64-4.16-26.92-15.67-31.79-31.77-10.82-35.77,7.26-80.71,39.65-99.26,14-8,29.06-10.37,44.79-8.42,11.25,1.39,20.26,7,26.32,17.42,6.26-15.15,6.26-15.17,22.61-15.29,6.48,0,13,0,20.67,0-1.57,7.31-2.9,13.78-4.36,20.23-8.23,36.48-16.58,72.93-24.66,109.45-.93,4.2-2.45,6.65-6.89,6.65Zm15.14-78.72c-1.58-10.07-3.26-19.06-12.09-24.53-9.32-5.77-19.12-4.94-28.18.45a45.21,45.21,0,0,0-12.34,10.88c-8.28,10.67-11.76,23.18-11.15,36.62,1,22.73,21.64,33.35,40.64,20.55A39.51,39.51,0,0,0,1266,777.22C1270.36,768,1272.68,757.86,1275.87,748.11Z" transform="translate(-427.15 -259.36)"/><path d="M1477,690.53l-30.4,53.26c-19.26,33.73-37.9,67.82-58,101.05-17,28.08-44.61,37.84-74.83,29.06-6.64-1.93-8.71-4.64-6-11.21a127.59,127.59,0,0,0,5.26-16.53c1.22-4.71,3.56-5.25,7.94-4a45.56,45.56,0,0,0,14.19,2.16c14.42-.5,26.12-16.13,23.5-30.07-7.64-40.75-15-81.55-22.78-123.69,9.34,0,18.12,0,26.9,0,17.48.07,14.26-3.41,16.67,15,3.14,24,6.06,48.07,9.34,74.13,5.26-10.23,9.66-18.69,14-27.18,9.52-18.7,19.08-37.38,28.43-56.16,2.07-4.17,4.61-6.14,9.5-6C1452.2,690.76,1463.73,690.53,1477,690.53Z" transform="translate(-427.15 -259.36)"/><path d="M686.29,826.87c.77-5.9,1.41-10.77,2.22-17l-6.45,5.41c-14.86,12.39-31.83,16.68-50.78,13.07-15.84-3-26.79-14.77-27.56-31.85-.45-10,1-20.22,3-30,4.84-23.37,10.64-46.54,15.78-69.85,1-4.62,2.91-6.25,7.72-6.09,10.78.38,21.58.12,33.35.12-2,9.62-3.67,18.08-5.57,26.48-3.87,17.18-8,34.3-11.76,51.5-1.92,8.82-3.74,18,5.56,24.23,7.38,5,20.09,3.64,28.61-2.76,10.07-7.56,14.46-18.38,17.13-30.17,4.52-20,9.37-39.91,13.45-60,1.48-7.28,4.37-10.13,12-9.58,9.79.7,19.67.17,30.49.17-2,9.06-3.68,17-5.52,24.93-8,34.29-16.21,68.53-23.88,102.89-1.47,6.61-4.53,8.82-10.86,8.61C704.61,826.66,695.93,826.87,686.29,826.87Z" transform="translate(-427.15 -259.36)"/><path d="M759.25,721.7c2.41-10,4.17-18.74,6.82-27.2.59-1.89,4.18-3.66,6.59-4,4.71-.63,9.56-.19,14.66-.19,1.66-7.14,2.48-14,4.95-20.15,1.64-4.1,5-9.31,8.67-10.46,10.92-3.39,22.38-5,34.95-7.61-3,13.42-5.58,25.28-8.5,38.48h34.22c-2.6,10.5-4.63,19.59-7.3,28.49-.38,1.28-3.83,2.24-5.88,2.3-9.16.24-18.33.1-28.24.1-3.1,12.94-6.2,25.74-9.21,38.56-1.21,5.16-2,10.44-3.36,15.55-4.34,15.83,4.48,25,23.59,20.63a55.3,55.3,0,0,0,6.66-2.55c0,9.59.2,18.6-.2,27.59-.07,1.42-2.6,3.43-4.37,4-15.31,4.81-30.87,6-46.33,1.06s-24.25-19.18-21.37-36.67c3.29-20,8.27-39.64,12.52-59.44.55-2.55,1.13-5.09,1.9-8.5Z" transform="translate(-427.15 -259.36)"/><path d="M1141.89,586.31c-26.7.09-45.1-21.22-41.28-47.81,3.69-25.75,25.83-46.69,50.56-47.82,28-1.29,47.86,20.24,44.29,48C1192,565.41,1168.62,586.22,1141.89,586.31Zm-19.51-43.64c.09,13.25,8.73,22,21.65,22,15.42-.07,29.76-14.4,29.74-29.72,0-13-9-22.39-21.43-22.42C1136.56,512.45,1122.26,526.85,1122.38,542.67Z" transform="translate(-427.15 -259.36)"/><path d="M785.3,490.56c22.65,0,40.5,17,41.52,39.7,1.42,31.63-26.76,58.63-58.38,55.93-20.36-1.74-35.35-16.7-37.06-37C728.83,518.86,754.82,490.59,785.3,490.56ZM805,535.47c.17-12.63-9.07-22.71-21.07-23-15.51-.35-30.34,14.09-30.56,29.76-.18,13,8.47,22.1,21.32,22.36C789.91,564.93,804.74,550.67,805,535.47Z" transform="translate(-427.15 -259.36)"/><path class="cls-1" d="M1122.38,542.67c-.12-15.82,14.18-30.22,30-30.18,12.42,0,21.42,9.45,21.43,22.42,0,15.32-14.32,29.65-29.74,29.72C1131.11,564.68,1122.47,555.92,1122.38,542.67Z" transform="translate(-427.15 -259.36)"/><path class="cls-1" d="M805,535.47c-.21,15.2-15,29.46-30.31,29.15-12.85-.26-21.5-9.33-21.32-22.36.22-15.67,15-30.11,30.56-29.76C795.88,512.76,805.12,522.84,805,535.47Z" transform="translate(-427.15 -259.36)"/></svg>